<svg width="155" height="27" viewBox="0 0 155 27" fill="none" xmlns="http://www.w3.org/2000/svg">
<path d="M9.288 15.992V20H7.248C3.808 20 2.088 18.296 2.088 14.888V10.448H0.432V6.536H2.088V3.272H6.816V6.536H9.264V10.448H6.816V14.96C6.816 15.328 6.896 15.592 7.056 15.752C7.232 15.912 7.52 15.992 7.92 15.992H9.288ZM20.5416 6.416C22.0776 6.416 23.2936 6.936 24.1896 7.976C25.1016 9 25.5576 10.392 25.5576 12.152V20H20.8536V12.776C20.8536 12.008 20.6536 11.408 20.2536 10.976C19.8536 10.528 19.3176 10.304 18.6456 10.304C17.9416 10.304 17.3896 10.528 16.9896 10.976C16.5896 11.408 16.3896 12.008 16.3896 12.776V20H11.6856V2.24H16.3896V8.456C16.8056 7.848 17.3656 7.36 18.0696 6.992C18.7896 6.608 19.6136 6.416 20.5416 6.416ZM41.2427 13.112C41.2427 13.48 41.2187 13.848 41.1707 14.216H32.2667C32.3147 14.952 32.5147 15.504 32.8667 15.872C33.2347 16.224 33.6987 16.4 34.2587 16.4C35.0427 16.4 35.6027 16.048 35.9387 15.344H40.9547C40.7467 16.272 40.3387 17.104 39.7307 17.84C39.1387 18.56 38.3867 19.128 37.4747 19.544C36.5627 19.96 35.5547 20.168 34.4507 20.168C33.1227 20.168 31.9387 19.888 30.8987 19.328C29.8747 18.768 29.0667 17.968 28.4747 16.928C27.8987 15.888 27.6107 14.664 27.6107 13.256C27.6107 11.848 27.8987 10.632 28.4747 9.608C29.0507 8.568 29.8507 7.768 30.8747 7.208C31.9147 6.648 33.1067 6.368 34.4507 6.368C35.7787 6.368 36.9547 6.64 37.9787 7.184C39.0027 7.728 39.8027 8.512 40.3787 9.536C40.9547 10.544 41.2427 11.736 41.2427 13.112ZM36.4427 11.936C36.4427 11.36 36.2507 10.912 35.8667 10.592C35.4827 10.256 35.0027 10.088 34.4267 10.088C33.8507 10.088 33.3787 10.248 33.0107 10.568C32.6427 10.872 32.4027 11.328 32.2907 11.936H36.4427ZM112.991 8.408C113.359 7.768 113.879 7.272 114.551 6.92C115.223 6.552 116.015 6.368 116.927 6.368C117.999 6.368 118.967 6.648 119.831 7.208C120.711 7.768 121.399 8.568 121.895 9.608C122.407 10.648 122.663 11.864 122.663 13.256C122.663 14.648 122.407 15.872 121.895 16.928C121.399 17.968 120.711 18.768 119.831 19.328C118.967 19.888 117.999 20.168 116.927 20.168C116.015 20.168 115.223 19.992 114.551 19.64C113.879 19.272 113.359 18.768 112.991 18.128V20H108.287V2.24H112.991V8.408ZM117.887 13.256C117.887 12.376 117.647 11.696 117.167 11.216C116.703 10.72 116.127 10.472 115.439 10.472C114.751 10.472 114.167 10.72 113.687 11.216C113.223 11.712 112.991 12.392 112.991 13.256C112.991 14.136 113.223 14.824 113.687 15.32C114.167 15.816 114.751 16.064 115.439 16.064C116.127 16.064 116.703 15.816 117.167 15.32C117.647 14.808 117.887 14.12 117.887 13.256ZM131.104 20.168C129.76 20.168 128.552 19.888 127.48 19.328C126.424 18.768 125.592 17.968 124.984 16.928C124.376 15.888 124.072 14.664 124.072 13.256C124.072 11.864 124.376 10.648 124.984 9.608C125.608 8.568 126.448 7.768 127.504 7.208C128.576 6.648 129.784 6.368 131.128 6.368C132.472 6.368 133.672 6.648 134.728 7.208C135.8 7.768 136.64 8.568 137.248 9.608C137.872 10.648 138.184 11.864 138.184 13.256C138.184 14.648 137.872 15.872 137.248 16.928C136.64 17.968 135.8 18.768 134.728 19.328C133.656 19.888 132.448 20.168 131.104 20.168ZM131.104 16.088C131.76 16.088 132.304 15.848 132.736 15.368C133.184 14.872 133.408 14.168 133.408 13.256C133.408 12.344 133.184 11.648 132.736 11.168C132.304 10.688 131.768 10.448 131.128 10.448C130.488 10.448 129.952 10.688 129.52 11.168C129.088 11.648 128.872 12.344 128.872 13.256C128.872 14.184 129.08 14.888 129.496 15.368C129.912 15.848 130.448 16.088 131.104 16.088ZM148.738 20L146.314 16.616L144.394 20H139.234L143.722 13.016L139.042 6.536H144.322L146.746 9.92L148.69 6.536H153.85L149.266 13.4L154.018 20H148.738Z" fill="black"/>
<path d="M45.7598 5.288C44.9278 5.288 44.2558 5.064 43.7438 4.616C43.2478 4.152 42.9998 3.576 42.9998 2.888C42.9998 2.184 43.2478 1.6 43.7438 1.136C44.2558 0.671999 44.9278 0.439999 45.7598 0.439999C46.5758 0.439999 47.2318 0.671999 47.7278 1.136C48.2398 1.6 48.4958 2.184 48.4958 2.888C48.4958 3.576 48.2398 4.152 47.7278 4.616C47.2318 5.064 46.5758 5.288 45.7598 5.288ZM48.1118 21.32C48.1118 24.728 46.3998 26.432 42.9758 26.432H41.2718V22.424H42.2798C42.6798 22.424 42.9678 22.344 43.1438 22.184C43.3198 22.024 43.4078 21.76 43.4078 21.392V6.536H48.1118V21.32ZM57.2711 20.168C55.9271 20.168 54.7191 19.888 53.6471 19.328C52.5911 18.768 51.7591 17.968 51.1511 16.928C50.5431 15.888 50.2391 14.664 50.2391 13.256C50.2391 11.864 50.5431 10.648 51.1511 9.608C51.7751 8.568 52.6151 7.768 53.6711 7.208C54.7431 6.648 55.9511 6.368 57.2951 6.368C58.6391 6.368 59.8391 6.648 60.8951 7.208C61.9671 7.768 62.8071 8.568 63.4151 9.608C64.0391 10.648 64.3511 11.864 64.3511 13.256C64.3511 14.648 64.0391 15.872 63.4151 16.928C62.8071 17.968 61.9671 18.768 60.8951 19.328C59.8231 19.888 58.6151 20.168 57.2711 20.168ZM57.2711 16.088C57.9271 16.088 58.4711 15.848 58.9031 15.368C59.3511 14.872 59.5751 14.168 59.5751 13.256C59.5751 12.344 59.3511 11.648 58.9031 11.168C58.4711 10.688 57.9351 10.448 57.2951 10.448C56.6551 10.448 56.1191 10.688 55.6871 11.168C55.2551 11.648 55.0391 12.344 55.0391 13.256C55.0391 14.184 55.2471 14.888 55.6631 15.368C56.0791 15.848 56.6151 16.088 57.2711 16.088ZM74.9289 20L71.2089 14.48V20H66.5049V2.24H71.2089V11.816L74.9289 6.536H80.5689L75.2649 13.304L80.6649 20H74.9289ZM95.148 13.112C95.148 13.48 95.124 13.848 95.076 14.216H86.172C86.22 14.952 86.42 15.504 86.772 15.872C87.14 16.224 87.604 16.4 88.164 16.4C88.948 16.4 89.508 16.048 89.844 15.344H94.86C94.652 16.272 94.244 17.104 93.636 17.84C93.044 18.56 92.292 19.128 91.38 19.544C90.468 19.96 89.46 20.168 88.356 20.168C87.028 20.168 85.844 19.888 84.804 19.328C83.78 18.768 82.972 17.968 82.38 16.928C81.804 15.888 81.516 14.664 81.516 13.256C81.516 11.848 81.804 10.632 82.38 9.608C82.956 8.568 83.756 7.768 84.78 7.208C85.82 6.648 87.012 6.368 88.356 6.368C89.684 6.368 90.86 6.64 91.884 7.184C92.908 7.728 93.708 8.512 94.284 9.536C94.86 10.544 95.148 11.736 95.148 13.112ZM90.348 11.936C90.348 11.36 90.156 10.912 89.772 10.592C89.388 10.256 88.908 10.088 88.332 10.088C87.756 10.088 87.284 10.248 86.916 10.568C86.548 10.872 86.308 11.328 86.196 11.936H90.348ZM102.017 8.912C102.545 8.144 103.185 7.536 103.937 7.088C104.689 6.64 105.497 6.416 106.361 6.416V11.432H105.041C104.017 11.432 103.257 11.632 102.761 12.032C102.265 12.432 102.017 13.128 102.017 14.12V20H97.3131V6.536H102.017V8.912Z" fill="#0066FF"/>
</svg>
