<svg viewBox="0 0 200 200" fill="none" xmlns="http://www.w3.org/2000/svg">



<g transform="matrix(14.285714285714286,0,0,14.285714285714286,0,0)"><path d="M7 13.25C10.4518 13.25 13.25 10.4518 13.25 7C13.25 3.54822 10.4518 0.75 7 0.75C3.54822 0.75 0.75 3.54822 0.75 7C0.75 10.4518 3.54822 13.25 7 13.25Z" fill="#D7E0FF" stroke="#151ae2" stroke-width="1.5" stroke-linecap="round" stroke-linejoin="round"></path><path d="M7.00002 7.03916C8.05839 7.03916 8.91637 6.18119 8.91637 5.12282C8.91637 4.06445 8.05839 3.20648 7.00002 3.20648C5.94166 3.20648 5.08368 4.06445 5.08368 5.12282C5.08368 6.18119 5.94166 7.03916 7.00002 7.03916Z" fill="white" stroke="#151ae2" stroke-width="1.5" stroke-linecap="round" stroke-linejoin="round"></path><path d="M10.7043 12.0345C9.66765 12.7985 8.38655 13.25 7 13.25C5.61345 13.25 4.33235 12.7985 3.29572 12.0345C3.50216 11.257 3.9487 10.5622 4.57448 10.0507C5.259 9.49119 6.11591 9.18555 7 9.18555C7.88409 9.18555 8.741 9.49119 9.42552 10.0507C10.0513 10.5622 10.4978 11.257 10.7043 12.0345Z" fill="white" stroke="#151ae2" stroke-width="1.5" stroke-linecap="round" stroke-linejoin="round"></path></g></svg>